<?xml version="1.0" encoding="UTF-8"?>
<!DOCTYPE svg PUBLIC "-//W3C//DTD SVG 1.1//EN" "http://www.w3.org/Graphics/SVG/1.1/DTD/svg11.dtd">
<!-- Creator: CorelDRAW X7 -->
<svg xmlns="http://www.w3.org/2000/svg" xml:space="preserve" width="88.9112mm" height="42.3272mm" version="1.1" shape-rendering="geometricPrecision" text-rendering="geometricPrecision" image-rendering="optimizeQuality" fill-rule="evenodd" clip-rule="evenodd"
viewBox="0 0 9112 4338"
 xmlns:xlink="http://www.w3.org/1999/xlink">
 <defs>
   <clipPath id="id0" clip-rule="nonzero">
    <path d="M9112 4338l-9112 0 0 -4338 219 0 0 217 8893 0 0 4121zm-3833 -633l-73 140 1755 0 76 -140 851 0c474,0 860,-384 860,-859 0,-457 -357,-831 -808,-858l76 -142 -638 0c-8,-44 -21,-86 -39,-127 -57,-134 -164,-238 -300,-293l-463 -184 -8 19c-146,-89 -443,-305 -542,-645 -36,-235 -148,-327 -237,-362 -39,-15 -78,-22 -119,-22 -326,0 -652,457 -831,908 -115,290 -183,599 -167,846l-3461 0c-477,0 -859,385 -859,860 0,475 382,859 859,859l4068 0 0 0z"/>
   </clipPath>
   <linearGradient id="id1" gradientUnits="userSpaceOnUse" x1="4211.15" y1="1196.59" x2="4886.16" y2="4494.9">
    <stop offset="0" stop-opacity="1" stop-color="#D97D87"/>
    <stop offset="0.411765" stop-opacity="1" stop-color="#CE405B"/>
    <stop offset="1" stop-opacity="1" stop-color="#A53B46"/>
   </linearGradient>
   <linearGradient id="id2" gradientUnits="userSpaceOnUse" x1="6044.14" y1="2049.29" x2="7177.72" y2="3642.19">
    <stop offset="0" stop-opacity="1" stop-color="#4B4C4D"/>
    <stop offset="0.341176" stop-opacity="1" stop-color="#4B4C4D"/>
    <stop offset="1" stop-opacity="1" stop-color="#353638"/>
   </linearGradient>
   <linearGradient id="id3" gradientUnits="userSpaceOnUse" x1="4268.34" y1="566.732" x2="4608.13" y2="906.174">
    <stop offset="0" stop-opacity="1" stop-color="#D97D87"/>
    <stop offset="0.411765" stop-opacity="1" stop-color="#CE405B"/>
    <stop offset="1" stop-opacity="1" stop-color="#A53B46"/>
   </linearGradient>
   <linearGradient id="id4" gradientUnits="userSpaceOnUse" x1="3870.74" y1="1229.54" x2="4058.69" y2="1711.81">
    <stop offset="0" stop-opacity="1" stop-color="#D97D87"/>
    <stop offset="0.411765" stop-opacity="1" stop-color="#CE405B"/>
    <stop offset="1" stop-opacity="1" stop-color="#A53B46"/>
   </linearGradient>
   <clipPath id="id5" clip-rule="nonzero">
    <path d="M9112 217l-8894 0 0 -217 8894 0 0 217 0 0z"/>
   </clipPath>
 </defs>
 <g id="Camada_x0020_1">
  <metadata id="CorelCorpID_0Corel-Layer"/>
  <g clip-path="url(#id0)">
   <image x="-36" y="-38" width="9188" height="4415" xlink:href="logo_Images\logo_ImgID1.png"/>
  </g>
  <path fill="url(#id1)" d="M7887 3705l-851 0 905 -1717c449,28 806,401 806,858 0,474 -385,859 -860,859zm-2607 0l-4070 0c-475,0 -859,-385 -859,-859 0,-475 384,-859 859,-859l3462 0c13,218 89,388 248,451 37,15 76,23 117,23 97,0 199,-41 304,-122 148,-87 325,-130 525,-130 72,0 138,5 196,13l-782 1483z"/>
  <path fill="url(#id2)" d="M6962 3846l-1756 0 74 -141 782 -1483c57,8 105,18 141,26l-104 262c-33,84 -32,175 4,258 36,83 101,147 185,180 40,16 82,24 125,24 139,0 262,-83 313,-213l110 -275c4,0 8,0 12,0 53,-1 105,-10 156,-27 33,-10 65,-24 96,-41 31,-17 60,-37 87,-59 70,-59 124,-134 158,-219 38,-94 48,-195 32,-292l639 0 -75 142 -905 1717 -74 141z"/>
  <polygon fill="url(#id3)" points="4155,814 4443,453 4721,1020 "/>
  <line fill="none" stroke="#FFF13C" stroke-width="76.8665" stroke-dasharray="384.332616 230.599570" x1="7119" y1="1847" x2="6064" y2= "3846" />
  <polygon fill="url(#id4)" points="3408,1478 4522,1254 3755,1688 "/>
  <path fill="#FEFEFE" fill-rule="nonzero" d="M6413 2972c139,0 262,-83 313,-213l110 -275c4,0 8,0 12,0 53,-1 105,-10 156,-27 33,-10 65,-24 96,-41 31,-17 60,-37 87,-59 70,-59 124,-134 158,-219 54,-136 52,-285 -6,-419 -58,-135 -165,-239 -301,-293l-462 -184 -7 18c-147,-89 -442,-304 -543,-644 -36,-235 -149,-327 -238,-362 -37,-15 -76,-22 -118,-22 -325,0 -652,456 -832,909 -216,543 -257,1162 82,1297 37,15 76,23 117,23 97,0 199,-41 304,-122 148,-87 325,-130 525,-130 143,0 264,22 337,39l-104 262c-33,84 -32,175 4,258 36,83 101,147 185,180 40,16 82,24 125,24z"/>
  <path fill="#77343A" fill-rule="nonzero" d="M6340 2817c101,40 215,-9 256,-110l199 -501 -365 -145 -200 501c-40,101 9,215 110,255z"/>
  <polygon fill="#CD91A8" fill-rule="nonzero" points="6662,2540 6662,2540 6745,2332 6745,2332 "/>
  <path fill="#703136" fill-rule="nonzero" d="M6662 2540l-325 -246 41 -102 307 122c20,8 40,14 60,18l-83 208z"/>
  <path fill="#AA3652" fill-rule="nonzero" d="M6354 2182l331 132c209,83 446,-19 529,-228 83,-209 -19,-446 -228,-529l-331 -132 -301 757z"/>
  <path fill="#B85C7C" fill-rule="nonzero" d="M6836 2343l0 0c0,0 0,0 0,0 0,0 0,0 0,0zm0 0c-31,0 -61,-3 -91,-11l0 0c30,8 60,11 91,11z"/>
  <path fill="#AB4861" fill-rule="nonzero" d="M6745 2332l0 0c0,0 0,0 0,0l0 0z"/>
  <path fill="#642F31" fill-rule="nonzero" d="M6745 2332c-20,-4 -40,-10 -60,-18l-307 -122 307 122c20,8 40,14 60,18l0 0z"/>
  <path fill="#B85C7C" fill-rule="nonzero" d="M6354 2182l19 -47 0 0 -19 47zm859 -93c0,-1 1,-2 1,-3l0 0c0,1 -1,2 -1,3z"/>
  <path fill="#98373E" fill-rule="nonzero" d="M6836 2343c0,0 0,0 0,0 -31,0 -61,-3 -91,-11 0,0 0,0 0,0 -20,-4 -40,-10 -60,-18l-307 -122 -24 -10 19 -47c74,-23 166,-138 228,-293l613 244c0,1 -1,2 -1,3 -64,158 -216,254 -377,254 0,0 0,0 0,0z"/>
  <path fill="#CE405A" fill-rule="nonzero" d="M6353 1744c-83,209 -83,405 1,438 84,33 219,-109 302,-317 83,-209 82,-405 -1,-439 -84,-33 -219,109 -302,318z"/>
  <path fill="#D2DCE2" fill-rule="nonzero" d="M6600 1438c77,30 77,211 1,404 -77,193 -202,324 -279,293 -3,-1 -593,-202 -1074,95l636 -1599c145,546 712,805 716,807z"/>
  <path fill="#B5C1C4" fill-rule="nonzero" d="M6601 1842c-77,193 -202,324 -279,293 -3,-1 -593,-202 -1074,95l318 -800 1035 412z"/>
  <path fill="#CE405A" fill-rule="nonzero" d="M4968 1193c-211,531 -209,1030 4,1114 213,85 556,-277 767,-807 212,-531 210,-1030 -3,-1115 -213,-85 -556,277 -768,808z"/>
  <path fill="#D2DCE2" fill-rule="nonzero" d="M5102 1246c-168,423 -191,810 -52,866 139,55 388,-243 556,-666 168,-422 191,-810 52,-865 -139,-55 -388,242 -556,665z"/>
  <path fill="#B5C1C4" fill-rule="nonzero" d="M5719 643c65,137 24,459 -113,803 -137,345 -328,607 -470,662 -64,-137 -23,-459 114,-803 137,-345 328,-607 469,-662z"/>
  <path fill="#AA3652" fill-rule="nonzero" d="M5354 1346c53,-134 202,-202 338,-156 -23,82 -51,168 -86,256 -35,88 -74,171 -114,246 -130,-60 -191,-211 -138,-346z"/>
  <path fill="#98373E" fill-rule="nonzero" d="M5492 1692c-98,-45 -157,-143 -157,-246 0,-33 6,-67 19,-100l252 100c-35,88 -74,171 -114,246z"/>
  <g clip-path="url(#id5)">
   <image x="206" y="-10" width="8917" height="236" xlink:href="logo_Images\logo_ImgID2.png"/>
  </g>
  <path fill="#FEFEFE" fill-rule="nonzero" d="M1473 3223c0,51 -21,95 -63,131 -41,36 -91,54 -150,54l-213 0 0 -773 213 0c59,0 109,18 151,54 41,36 62,80 62,130l0 404zm-291 70l82 0c21,0 40,-7 54,-20 15,-14 23,-29 23,-47l0 -405c0,-18 -8,-34 -23,-47 -15,-14 -33,-20 -54,-20l-82 0 0 539z"/>
  <polygon id="1" fill="#FEFEFE" fill-rule="nonzero" points="1591,3408 1591,2635 1977,2635 1977,2752 1727,2752 1727,2963 1909,2963 1909,3080 1727,3080 1727,3291 1977,3291 1977,3408 "/>
  <polygon id="2" fill="#FEFEFE" fill-rule="nonzero" points="2222,2635 2402,3154 2402,2635 2537,2635 2537,3408 2392,3408 2205,2913 2205,3408 2070,3408 2070,2635 "/>
  <path id="3" fill="#FEFEFE" fill-rule="nonzero" d="M2872 3417c-60,0 -110,-18 -152,-54 -41,-35 -62,-79 -62,-130l0 -597 132 0 0 596c0,19 8,34 23,48 15,12 34,19 55,19 22,0 40,-7 55,-19 15,-14 22,-29 22,-48l0 -596 142 0 0 597c0,52 -21,96 -63,131 -42,35 -93,53 -152,53z"/>
  <polygon id="4" fill="#FEFEFE" fill-rule="nonzero" points="3360,2635 3540,3154 3540,2635 3675,2635 3675,3408 3529,3408 3343,2913 3343,3408 3208,3408 3208,2635 "/>
  <path id="5" fill="#FEFEFE" fill-rule="nonzero" d="M4008 3418c-59,0 -110,-18 -152,-54 -41,-36 -62,-80 -62,-130l0 -422c0,-51 21,-95 63,-131 42,-36 92,-54 151,-54 60,0 111,18 152,54 42,37 63,80 63,131l0 88 -141 0 0 -90c0,-19 -7,-35 -23,-48 -15,-13 -33,-19 -55,-19 -21,0 -39,6 -55,19 -15,13 -22,29 -22,48l0 422c0,19 7,34 22,48 16,12 34,19 55,19 22,0 40,-7 55,-19 16,-13 23,-29 23,-48l0 -106 141 0 0 108c0,51 -21,95 -64,130 -41,36 -92,54 -151,54z"/>
  <polygon id="6" fill="#FEFEFE" fill-rule="nonzero" points="4469,3408 4334,3408 4334,2636 4469,2636 "/>
  <polygon id="7" fill="#FEFEFE" fill-rule="nonzero" points="4591,3408 4591,2635 4976,2635 4976,2752 4726,2752 4726,2963 4909,2963 4909,3080 4726,3080 4726,3291 4976,3291 4976,3408 "/>
  <path id="8" fill="#FEFEFE" fill-rule="nonzero" d="M5069 3067l0 -432 136 0 0 432 -10 150 -115 0 -11 -150zm0 341l0 -117 136 0 0 117 -136 0z"/>
  <polygon fill="#FEFEFE" fill-rule="nonzero" points="1054,2497 1110,2497 1110,2360 1161,2497 1206,2497 1257,2360 1257,2497 1313,2497 1313,2268 1247,2268 1184,2427 1120,2268 1054,2268 "/>
  <path id="1" fill="#FEFEFE" fill-rule="nonzero" d="M1577 2382c0,-69 -51,-117 -116,-117 -65,0 -118,48 -118,117 0,69 53,117 118,117 64,0 116,-48 116,-117zm-177 0c0,-41 24,-66 61,-66 36,0 60,25 60,66 0,40 -24,66 -60,66 -37,0 -61,-26 -61,-66z"/>
  <path id="2" fill="#FEFEFE" fill-rule="nonzero" d="M1734 2427c0,17 -10,25 -29,25l-41 0 0 -50 40 0c19,0 30,9 30,25zm-5 -90c0,16 -10,24 -29,24l-36 0 0 -48 36 0c19,0 29,9 29,24zm62 98c0,-26 -18,-50 -44,-55 22,-7 38,-25 38,-52 0,-36 -27,-60 -74,-60l-103 0 0 229 107 0c48,0 76,-25 76,-62z"/>
  <polygon id="3" fill="#FEFEFE" fill-rule="nonzero" points="1823,2497 1878,2497 1878,2268 1823,2268 "/>
  <polygon id="4" fill="#FEFEFE" fill-rule="nonzero" points="1919,2268 1919,2497 2047,2497 2047,2454 1974,2454 1974,2268 "/>
  <polygon id="5" fill="#FEFEFE" fill-rule="nonzero" points="2074,2497 2130,2497 2130,2268 2074,2268 "/>
  <path id="6" fill="#FEFEFE" fill-rule="nonzero" d="M2256 2268l-86 0 0 229 86 0c72,0 119,-47 119,-114 0,-68 -47,-115 -119,-115zm-30 181l0 -133 26 0c42,0 67,25 67,67 0,42 -25,66 -67,66l-26 0z"/>
  <path id="7" fill="#FEFEFE" fill-rule="nonzero" d="M2562 2497l59 0 -82 -229 -65 0 -82 229 58 0 14 -40 85 0 13 40zm-28 -83l-56 0 28 -84 28 84z"/>
  <path id="8" fill="#FEFEFE" fill-rule="nonzero" d="M2732 2268l-86 0 0 229 86 0c73,0 120,-47 120,-114 0,-68 -47,-115 -120,-115zm-30 181l0 -133 26 0c42,0 67,25 67,67 0,42 -25,66 -67,66l-26 0z"/>
  <polygon id="9" fill="#FEFEFE" fill-rule="nonzero" points="3023,2268 2883,2268 2883,2497 3023,2497 3023,2452 2939,2452 2939,2402 3013,2402 3013,2359 2939,2359 2939,2313 3023,2313 "/>
  <path id="10" fill="#FEFEFE" fill-rule="nonzero" d="M3127 2405c0,63 41,94 94,94 53,0 97,-31 97,-94l0 -137 -55 0 0 137c0,27 -14,43 -41,43 -26,0 -39,-16 -39,-43l0 -137 -56 0 0 137z"/>
  <path id="11" fill="#FEFEFE" fill-rule="nonzero" d="M3478 2343c0,18 -10,28 -30,28l-35 0 0 -56 35 0c20,0 30,11 30,28zm-121 -75l0 229 56 0 0 -86 13 0 48 86 63 0 -53 -91c35,-10 51,-37 51,-66 0,-39 -28,-72 -84,-72l-94 0z"/>
  <path id="12" fill="#FEFEFE" fill-rule="nonzero" d="M3695 2427c0,17 -10,25 -29,25l-41 0 0 -50 41 0c18,0 29,9 29,25zm-5 -90c0,16 -10,24 -28,24l-37 0 0 -48 37 0c18,0 28,9 28,24zm62 98c0,-26 -17,-50 -44,-55 22,-7 39,-25 39,-52 0,-36 -28,-60 -75,-60l-102 0 0 229 106 0c48,0 76,-25 76,-62z"/>
  <path id="13" fill="#FEFEFE" fill-rule="nonzero" d="M3940 2497l59 0 -83 -229 -64 0 -83 229 58 0 14 -40 85 0 14 40zm-28 -83l-56 0 28 -84 28 84z"/>
  <polygon id="14" fill="#FEFEFE" fill-rule="nonzero" points="4173,2268 4173,2410 4079,2268 4024,2268 4024,2497 4079,2497 4079,2356 4173,2497 4228,2497 4228,2268 "/>
  <path id="15" fill="#FEFEFE" fill-rule="nonzero" d="M4424 2497l59 0 -82 -229 -65 0 -82 229 58 0 13 -40 86 0 13 40zm-28 -83l-56 0 28 -84 28 84z"/>
 </g>
</svg>
